<?xml version="1.0" standalone="no"?><!DOCTYPE svg PUBLIC "-//W3C//DTD SVG 1.1//EN" "http://www.w3.org/Graphics/SVG/1.1/DTD/svg11.dtd"><svg t="1737872663749" class="icon" viewBox="0 0 1024 1024" version="1.1" xmlns="http://www.w3.org/2000/svg" p-id="5097" xmlns:xlink="http://www.w3.org/1999/xlink" width="200" height="200"><path d="M808.96 404.48c-89.6-74.24-192-104.96-307.2-107.52-35.84 0-69.12 2.56-104.96 10.24-94.72 20.48-176.64 61.44-243.2 133.12-81.92 92.16-110.08 197.12-71.68 314.88 28.16 84.48 84.48 145.92 158.72 192 115.2 69.12 238.08 87.04 366.08 61.44 102.4-20.48 189.44-69.12 256-151.04 61.44-76.8 84.48-163.84 64-261.12-12.8-79.36-56.32-140.8-117.76-192z m-366.08 43.52c0-2.56 0-5.12 2.56-5.12 2.56-5.12 2.56-10.24 10.24-12.8 7.68 0 10.24 5.12 12.8 10.24 12.8 20.48 17.92 43.52 20.48 69.12 0 10.24 2.56 20.48 2.56 28.16 0 12.8 0 25.6-5.12 35.84-2.56 5.12-2.56 12.8-10.24 15.36-7.68 0-12.8-5.12-15.36-10.24-10.24-15.36-12.8-33.28-17.92-51.2-5.12-28.16-7.68-53.76 0-79.36z m-143.36 25.6c2.56-5.12 5.12-10.24 10.24-12.8 5.12 0 10.24 5.12 12.8 7.68 10.24 17.92 15.36 35.84 20.48 56.32 5.12 23.04 5.12 48.64 0 71.68-2.56 7.68-2.56 17.92-12.8 20.48-10.24 2.56-15.36-7.68-17.92-15.36-12.8-28.16-17.92-58.88-17.92-89.6 0-12.8 0-25.6 5.12-38.4zM729.6 768c-23.04 53.76-64 89.6-115.2 115.2-35.84 17.92-76.8 28.16-117.76 28.16-104.96-5.12-189.44-48.64-245.76-143.36-2.56-7.68-7.68-12.8-10.24-20.48-10.24-25.6-2.56-38.4 23.04-46.08l76.8-15.36c81.92-17.92 158.72-46.08 230.4-92.16 20.48-12.8 40.96-28.16 58.88-46.08 2.56-2.56 7.68-5.12 12.8-10.24 25.6-17.92 51.2-12.8 69.12 12.8 15.36 23.04 23.04 48.64 28.16 74.24 7.68 53.76 7.68 99.84-10.24 143.36z" fill="#9899ff" p-id="5098"></path><path d="M842.24 79.36c-38.4-5.12-74.24 7.68-110.08 25.6-5.12 2.56-7.68 2.56-12.8-2.56-12.8-20.48-30.72-38.4-48.64-53.76-69.12-53.76-168.96-53.76-243.2 0-5.12 5.12-10.24 5.12-15.36 0C384 23.04 348.16 10.24 304.64 10.24c-12.8 0-33.28 2.56-51.2 10.24-99.84 38.4-125.44 153.6-51.2 225.28 51.2 48.64 128 64 197.12 33.28 64-28.16 130.56-38.4 202.24-25.6 58.88 10.24 115.2 33.28 161.28 71.68 20.48 17.92 43.52 28.16 69.12 30.72 46.08 2.56 87.04-10.24 115.2-48.64 35.84-43.52 40.96-92.16 17.92-143.36-23.04-48.64-66.56-76.8-122.88-84.48z" fill="#9899ff" p-id="5099"></path></svg>